<?xml version="1.0" encoding="utf-8"?>
<!-- Generator: Adobe Illustrator 27.7.0, SVG Export Plug-In . SVG Version: 6.00 Build 0)  -->
<svg version="1.1" id="Layer_1" xmlns="http://www.w3.org/2000/svg" xmlns:xlink="http://www.w3.org/1999/xlink" x="0px" y="0px"
	 viewBox="0 0 157.4 67.2" style="enable-background:new 0 0 157.4 67.2;" xml:space="preserve">
<style type="text/css">
	.st0{fill:#352519;}
	.st1{fill:#F9F3EC;}
	.st2{fill:#E76D56;}
	.st3{fill:#E56A55;}
	.st4{fill:#E46852;}
	.st5{fill:#E96B58;}
	.st6{fill:#E46853;}
	.st7{fill:#EA765E;}
	.st8{fill:#E96C57;}
	.st9{fill:#E86752;}
	.st10{fill:#E86B55;}
	.st11{fill:#E76A53;}
	.st12{fill:#E76E5A;}
	.st13{fill:#E96855;}
	.st14{fill:#E96E59;}
	.st15{fill:#E86753;}
	.st16{fill:#EA6F59;}
	.st17{fill:#E7624C;}
	.st18{fill:#E7705B;}
	.st19{fill:#E86C57;}
	.st20{fill:#E66952;}
	.st21{fill:#EA6E59;}
	.st22{fill:#E66F5B;}
	.st23{fill:#E76F5A;}
	.st24{fill:#EA6B55;}
	.st25{fill:#E86852;}
	.st26{fill:#E96C58;}
	.st27{fill:#E86B57;}
	.st28{fill:#E76856;}
	.st29{fill:#FBF4ED;}
</style>
<g>
	<path class="st0" d="M29.7,22.8c-0.6-3.8-2.9-7-6.3-8.6c-0.8-0.4-1.9-0.8-2.4-0.9c-1.4-0.3-4-0.2-5.4,0.2c-3,0.8-5.5,2.9-7.1,5.9
		c-1,2-1.4,3.5-1.4,5.9c0,2.5,0.3,3.9,1.3,6.1c0.6,1.3,0.9,1.8,2.2,3c2.3,2.3,4.5,3.2,7.9,3.2c2.8,0,4.9-0.7,7-2.4
		c1.7-1.4,3.3-3.8,3.9-6.1C29.8,27.5,29.9,24.4,29.7,22.8z M21.2,36.3c-2.7,1.3-5.8,0.3-7.7-2.6c-1.7-2.5-2.4-5.2-2.4-9.1
		c0-3.8,0.5-5.8,2-8c0.9-1.3,1.8-2.1,3-2.6c1.2-0.5,3.4-0.4,4.6,0.2c1.7,0.9,3.1,2.7,4,5C27.4,26.1,25.7,34.1,21.2,36.3z"/>
	<path class="st0" d="M36,21.5c0,0-1.1,0.3-2.4,0.6c-1.3,0.3-2.4,0.6-2.4,0.7c-0.1,0.1,0.2,0.3,0.6,0.5c0.4,0.2,0.8,0.5,1,0.7
		c0.2,0.3,0.2,1.7,0.3,5.5c0.1,4.8,0.1,5.1,0.4,5.7c1.5,2.9,5.5,3.1,8.6,0.5c0.5-0.4,1-0.8,1-0.8c0.1,0,0.1,0.3,0.1,0.6
		c0,0.6,0.3,1.9,0.4,1.9c0.3,0,4.3-0.9,4.4-1c0.1-0.1-0.2-0.3-0.6-0.5c-0.6-0.3-0.8-0.4-0.9-1c-0.1-0.4-0.2-3-0.2-7v-6.4l-2.4,0.6
		c-1.3,0.3-2.5,0.6-2.6,0.7c-0.1,0.1,0.2,0.3,0.6,0.5c0.4,0.2,0.8,0.5,0.9,0.8c0.1,0.3,0.2,2,0.2,5.2v4.8l-0.8,0.6c-1,0.8-1.7,1-3,1
		c-1.4,0-2.3-0.6-2.7-1.8c-0.1-0.4-0.2-2.6-0.2-6.4C36.4,22.3,36.3,21.2,36,21.5L36,21.5z"/>
	<path class="st0" d="M52.1,22c-1.2,0.3-2.3,0.5-2.5,0.5c-0.5,0-0.3,0.3,0.3,0.6c0.3,0.1,0.7,0.4,0.9,0.7c0.3,0.4,0.3,0.6,0.3,6v5.5
		l-0.4,0.5c-0.2,0.3-0.7,0.6-1,0.7c-0.3,0.1-0.5,0.3-0.5,0.3c0.1,0.2,7.1,0.2,7.1,0c0-0.1-0.3-0.2-0.6-0.3c-0.3-0.1-0.8-0.4-1-0.7
		l-0.4-0.5v-5c0-5.5,0-5.6,1-6.3c0.9-0.7,1.4-0.6,2.6,0.2c1.3,1,1.7,1,2.1,0.1c0.1-0.4,0.3-1.1,0.3-1.6c0-0.9,0-0.9-0.6-1.1
		c-1.4-0.6-3.1,0-4.3,1.3c-0.4,0.4-0.7,0.9-0.7,0.9c0,0.1-0.1,0.1-0.2,0.1c-0.1,0-0.2-0.6-0.2-1.3l0-1.3L52.1,22z"/>
	<path class="st0" d="M42.4,62.9c-0.2,0-0.6-0.2-0.9-0.5L41,61.9l-0.2-21.3l-2.3,0.5c-1.3,0.3-2.4,0.6-2.4,0.7
		c-0.1,0.1,0.1,0.2,0.4,0.4c1.1,0.5,1.1,0.6,1.1,4.2v3.2l-0.9-0.5c-3.5-1.7-7.7-0.3-9.5,3.3c-1.7,3.6-1.2,8,1.3,10.3
		c1.2,1.1,2,1.4,4,1.4c2,0,2.7-0.3,4.2-1.6c0.5-0.5,0.9-0.8,0.9-0.8c0,0,0.1,0.6,0.2,1.2c0.1,0.6,0.2,1.1,0.2,1.2
		c0.1,0.1,4.4-0.8,4.5-1C42.7,63,42.6,62.9,42.4,62.9z M37.3,61.2c-1,1-1.9,1.4-3.1,1.4c-0.9,0-1.2-0.1-1.9-0.5
		c-1-0.6-1.7-1.6-2.2-3.2c-0.3-1-0.4-1.5-0.4-3.3c0-2.6,0.4-4.1,1.4-5.3c1.2-1.4,2.6-1.7,4.2-1c0.9,0.4,1.5,1.1,2.1,2.3
		c0.4,0.8,0.4,1,0.4,4.9l0.1,4.1L37.3,61.2z"/>
	<path class="st0" d="M25.7,63.2c-0.7-0.3-1.5-0.9-1.8-1.5c-0.2-0.3-0.9-2.2-1.6-4.4c-2.5-7.2-5.4-15.5-5.6-16l-0.2-0.5l-2.2-0.1
		c-1.4,0-2.2,0-2.2,0.1c0,0.1,0.3,0.6,0.7,1.2c0.4,0.6,0.6,1.1,0.6,1.2c0,0.1-0.7,2-1.5,4.3c-0.8,2.2-2.1,5.7-2.8,7.6
		c-2.6,7.1-2.6,7.2-5,8.1C3,63.7,3.6,63.9,7,63.9c3.6,0,4-0.1,2.4-0.8C8.4,62.7,8,62.1,8,61.4c0-0.3,1.2-4.1,1.7-5.2l0.2-0.5l4,0
		l4.1,0l0.8,2.5c1.3,3.6,1.2,4.5-0.7,5c-1.6,0.4-0.8,0.6,3.7,0.6c3.5,0,4.4,0,4.4-0.2C26.3,63.5,26,63.4,25.7,63.2z M13.9,54.9
		c-2,0-3.7-0.1-3.7-0.1c0-0.1,0.5-1.5,1.1-3.1c0.6-1.6,1.4-3.9,1.8-5c0.4-1.1,0.8-2.1,0.8-2.1c0,0,0.2,0.3,0.4,0.8
		c0.2,0.4,0.6,1.9,1.1,3.2c1.3,3.6,2.1,6.1,2.1,6.3C17.6,54.8,16,54.9,13.9,54.9z"/>
	<path class="st0" d="M93.5,45.6c-0.9,1.7-2.6,3.2-3.8,3.2c-0.4,0-0.5,0.1-0.5,0.4c0,0.4,0,0.4,0.9,0.4H91v5.8c0,6.4,0.1,7,0.9,7.9
		c1.1,1,2.9,1.3,4.4,0.6c0.9-0.4,2-1.5,2-1.9c0-0.3-0.1-0.3-0.7,0.1c-0.6,0.4-1.9,0.6-2.5,0.3c-0.2-0.1-0.5-0.5-0.7-0.8
		c-0.3-0.5-0.3-1.2-0.3-6.3v-5.7h3.8v-0.4c0-0.4,0-0.4-1.8-0.4l-1.9,0l0-2C94.3,44.4,94.1,44.2,93.5,45.6L93.5,45.6z"/>
	<path class="st0" d="M70.4,60.5c-1.7,2-4.9,2.3-7,0.8c-1.4-1-2.1-2.7-2.3-5L61,55h10.2l-0.1-0.9c-0.3-3.9-3.3-6.2-7.3-5.7
		c-4,0.5-6.7,4.6-6.1,9.1c0.3,2.4,1.4,4.4,3.1,5.4c1.4,0.9,2.5,1.2,4.4,1.1c1.9-0.1,3-0.5,4.2-1.6c0.7-0.6,1.9-2.6,1.7-2.8
		C71.1,59.8,70.8,60.1,70.4,60.5z M61.2,53.5c0.1-1.7,1-3.5,2.3-4.3c0.7-0.4,2-0.4,2.7,0.1c0.7,0.5,1.2,1.3,1.5,2.1
		c0.2,0.8,0.3,2.6,0.1,2.8c-0.1,0.1-1.6,0.1-3.4,0.1h-3.2L61.2,53.5z"/>
	<path class="st0" d="M81.4,48.5c-1.1,0.2-2.3,0.9-3.3,1.7l-0.9,0.8l-0.1-1.2c-0.1-1.4,0.1-1.3-2.5-0.7c-0.9,0.2-1.8,0.4-2,0.5
		c-0.6,0.1-0.6,0.3,0.1,0.6c1.1,0.5,1.1,0.5,1.1,6.5c0,6.1,0,6-1.2,6.5c-0.3,0.1-0.6,0.4-0.6,0.5c0,0.2,0.8,0.2,3.4,0.2
		c3.7,0,4.1-0.1,2.7-0.7c-0.4-0.2-0.8-0.5-0.9-0.7c-0.1-0.3-0.2-1.8-0.2-5.5v-5.1l0.7-0.6c0.4-0.3,1-0.7,1.4-0.9
		c1.5-0.6,3.4-0.2,4.1,1c0.4,0.6,0.4,0.7,0.4,5.8c0,5,0,5.2-0.3,5.6c-0.2,0.2-0.6,0.5-0.9,0.6c-0.3,0.1-0.6,0.3-0.6,0.4
		c0,0.2,0.7,0.2,3.4,0.2s3.4,0,3.4-0.2c0-0.1-0.2-0.3-0.6-0.4c-1.2-0.4-1.1-0.3-1.2-6.3c-0.1-4.8-0.1-5.5-0.4-6.1
		c-0.4-0.9-1.5-1.9-2.3-2.1C83.5,48.4,82.1,48.3,81.4,48.5L81.4,48.5z"/>
	<path class="st0" d="M124.7,48.6c-0.9,0.3-2.4,1.6-2.6,2.2c-0.2,0.7-0.4,0.2-0.4-1c0-0.7,0-1.3-0.1-1.3c-0.1,0-4.4,1-4.7,1.1
		c-0.4,0.1-0.3,0.3,0.4,0.6c1.1,0.5,1.1,0.6,1.1,6.5c0,3.9-0.1,5.4-0.2,5.7c-0.1,0.2-0.5,0.6-1,0.8c-0.4,0.2-0.7,0.4-0.7,0.5
		c0.1,0.2,6.9,0.2,7,0c0-0.1-0.2-0.3-0.6-0.5c-1.3-0.6-1.3-0.4-1.3-6.1V52l0.7-0.7c0.7-0.7,0.8-0.7,1.5-0.7c0.6,0.1,0.9,0.2,1.5,0.8
		c1,0.9,1.5,0.9,1.9-0.1c0.2-0.5,0.3-1,0.3-1.6c0-0.7-0.1-0.9-0.5-1C126.3,48.3,125.6,48.3,124.7,48.6L124.7,48.6z"/>
	<path class="st0" d="M141.6,59.8c-0.1,0-0.5,0.3-0.9,0.7c-1,1.1-2,1.5-3.4,1.7c-1.8,0.2-2.8-0.2-4-1.4c-0.6-0.7-1-1.2-1.3-1.9
		c-0.4-1-0.7-2.4-0.7-3.3V55h10.2v-0.6c0-1.7-0.8-3.5-2.1-4.6c-1.2-1.1-3.5-1.7-5.5-1.3c-2.7,0.5-4.9,2.6-5.7,5.4
		c-0.3,1.3-0.3,4,0.1,5.3c0.7,2.3,2.4,4,4.6,4.7c1.7,0.5,3.8,0.4,5.2-0.3c0.6-0.3,1.4-0.9,1.8-1.3C140.9,61.5,141.8,60,141.6,59.8z
		 M133,49.9c1.1-1,2.6-1.2,3.6-0.5c0.3,0.2,0.8,0.8,1.1,1.3c0.4,0.7,0.5,1.1,0.5,2.3l0.1,1.4l-0.9,0.1c-1.3,0.2-5.6,0.1-5.9,0
		C131,54.1,132.1,50.7,133,49.9z"/>
	<path class="st0" d="M147.3,48.5c-0.5,0.1-1.2,0.2-1.6,0.4c-0.9,0.3-2.1,1.6-2.4,2.5c-0.7,2.5,0.5,4.2,4.5,6.3
		c1.3,0.7,2.5,1.4,2.7,1.7c1.6,1.9,0.2,4.4-2.3,4.4c-2,0-4.1-2-4.6-4.2c0-0.3-0.2-0.5-0.3-0.5c-0.2,0-0.2,0.4-0.2,2v2.1l0.7,0.3
		c2.1,0.9,5.3,1,7.2,0.3c1-0.4,2.1-1.4,2.5-2.4c0.4-0.9,0.3-2.5-0.2-3.5c-0.5-1.1-1.3-1.7-4-3c-1.1-0.6-2.4-1.3-2.8-1.7
		c-1.6-1.3-1.2-3.4,0.7-4.1c1.7-0.6,3.5,0.4,4.5,2.6c0.3,0.6,0.5,1.1,0.5,1.2c0,0.1,0.1,0.2,0.2,0.2c0.2,0,0.2-0.3,0.2-1.9v-1.9
		l-1.1-0.3C150.1,48.5,148.6,48.3,147.3,48.5L147.3,48.5z"/>
	<path class="st0" d="M101.1,49.1c-1.3,0.3-2.3,0.6-2.3,0.7s0.2,0.2,0.5,0.3c0.3,0.1,0.7,0.4,0.9,0.7l0.4,0.5v4.5
		c0,5.1,0.1,5.9,1.1,7.1c1.8,2.1,6.1,1.7,8.3-0.8c0.4-0.5,0.5-0.4,0.6,0.4c0,0.4,0.2,1,0.2,1.2l0.2,0.4l1.6-0.3
		c2.9-0.5,3.4-0.8,2.4-1.1c-0.3-0.1-0.7-0.4-0.9-0.6c-0.3-0.5-0.3-0.7-0.4-7.1c0-5.1-0.1-6.6-0.2-6.6c-0.1,0-1.2,0.3-2.4,0.6
		c-1.2,0.3-2.3,0.6-2.3,0.7c0,0.1,0.2,0.2,0.6,0.4c1.1,0.5,1.2,0.6,1.2,5.9l0,4.7l-0.5,0.5c-0.8,0.8-2.1,1.3-3.2,1.3
		c-1.2,0-1.7-0.2-2.2-0.8c-0.8-0.9-0.8-1.3-0.8-7.4c0-3.7-0.1-5.8-0.2-5.8C103.5,48.5,102.4,48.8,101.1,49.1L101.1,49.1z"/>
	<path class="st0" d="M42.5,49c0,0.1,0.2,0.3,0.5,0.4c1.1,0.6,1,0.3,5.2,10.5c1.7,4.1,1.7,4.1,2.1,4c0.6-0.1,0.6-0.1,1.2-1.7
		c1.1-2.7,3.9-9.5,4.4-10.6c0.5-1.1,1.5-2.1,2.1-2.4c0.9-0.3,0.2-0.4-2.1-0.4l-2.5,0l0.4,0.3c1.4,1.1,1.4,1,1.3,1.8
		c-0.1,0.7-3.1,8.6-3.4,8.9c-0.1,0.1-0.4-0.5-0.7-1.4c-2-5-2.9-7.4-2.9-7.8c0-0.6,0.3-1,1-1.4c0.4-0.2,0.7-0.4,0.7-0.4
		c0,0-1.6-0.1-3.6-0.1C43.9,48.8,42.5,48.9,42.5,49L42.5,49z"/>
	<g>
		<path class="st1" d="M76.5,40.8c0,0.7,0.1,0.6-0.6,0.7c-0.2,0-0.5,0-0.7,0v0c-0.2,0-0.4,0-0.5,0c-0.3,0-0.5-0.3-0.5-0.6
			c0-0.2,0.3-0.4,0.5-0.5c0.5-0.1,1,0,1.5,0C76.4,40.5,76.5,40.6,76.5,40.8z"/>
		<path class="st1" d="M75.8,11.6c0-0.7,0.2-1.4,0.4-2.1c0.1-0.2,0.1-0.5,0.2-0.7c0.1-0.2,0.2-0.4,0.3-0.5c0-0.1,0.1-0.1,0.2-0.1
			c0.2,0,0.4,0.1,0.5,0.2c0.2,0.2,0.3,0.3,0.2,0.6c-0.1,0.4-0.3,0.9-0.4,1.3c-0.1,0.5-0.2,0.9-0.2,1.4c0,0.4-0.3,0.6-0.7,0.5
			c0,0,0,0-0.1,0C75.8,12,75.8,12,75.8,11.6z"/>
		<path class="st1" d="M77.5,17.5c-0.2,0.1-0.4,0.2-0.7,0.2c-0.1,0-0.2,0-0.2-0.2c-0.1-0.3-0.2-0.6-0.3-0.9
			c-0.1-0.5-0.2-1.1-0.3-1.6c0-0.2-0.1-0.4-0.1-0.6c0-0.4,0.1-0.5,0.5-0.6c0.1,0,0.2,0,0.2,0c0.3,0,0.3,0,0.4,0.3
			c0,0.2,0,0.3,0.1,0.5c0.1,0.8,0.3,1.7,0.5,2.5C77.6,17.3,77.6,17.5,77.5,17.5z"/>
		<path class="st1" d="M78.7,22.7c-0.4-0.7-0.8-1.5-1.1-2.3c-0.1-0.2-0.2-0.4-0.2-0.6c-0.1-0.2,0-0.3,0.1-0.4
			c0.2-0.1,0.3-0.2,0.6-0.3c0.1,0,0.1,0.1,0.2,0.2c0.1,0.3,0.3,0.6,0.4,0.9c0.3,0.7,0.6,1.3,1,2c0.1,0.1,0.1,0.2-0.1,0.3
			c-0.1,0.1-0.3,0.2-0.4,0.3C78.9,22.9,78.8,22.9,78.7,22.7z"/>
		<path class="st1" d="M77.8,6.1c0.4-0.4,0.7-0.9,1.2-1.2c0.4-0.3,0.7-0.6,1.1-0.8c0.3-0.1,0.4-0.1,0.6,0.1C80.8,4.3,81,4.6,81,4.7
			c0,0.1,0,0.2-0.1,0.2C80,5.4,79.3,6,78.7,6.7C78.5,7,78.5,7,78.2,6.8c-0.1-0.1-0.2-0.1-0.3-0.2C77.6,6.5,77.6,6.3,77.8,6.1z"/>
		<path class="st1" d="M81.9,40.6c0.1,0.3,0,0.4-0.3,0.4c-0.5,0.1-1,0.2-1.5,0.2c-0.5,0.1-1,0.1-1.5,0.1c-0.2,0-0.4-0.2-0.4-0.6
			c0-0.1,0-0.2,0-0.3c0-0.1,0.1-0.1,0.2-0.2c0.5-0.1,1-0.2,1.4-0.2c0.5,0,1-0.1,1.5-0.2c0.3-0.1,0.4,0,0.5,0.3
			C81.8,40.3,81.9,40.4,81.9,40.6z"/>
		<path class="st1" d="M82.7,26.6c0.2,0.2,0.2,0.3-0.1,0.5c-0.1,0.1-0.2,0.2-0.3,0.3c-0.1,0.1-0.3,0.1-0.4,0
			c-0.3-0.4-0.6-0.8-0.9-1.2c-0.3-0.4-0.6-0.9-1-1.4c-0.2-0.3-0.2-0.4,0.1-0.6c0.1-0.1,0.2-0.1,0.3-0.2c0.1,0,0.1-0.1,0.2-0.1
			c0.1,0,0.2,0.1,0.3,0.2C81.5,25,82.1,25.8,82.7,26.6z"/>
		<path class="st1" d="M83,4.1c-0.1,0-0.1,0-0.2,0c-0.2,0-0.4,0-0.5-0.2c-0.1-0.3-0.1-0.6,0.1-0.8c0.1-0.1,0.1-0.1,0.2-0.1
			c1-0.1,2-0.2,3.1,0c0.2,0,0.4,0.1,0.3,0.5c0,0.1,0,0.2,0,0.3c0,0.2-0.2,0.3-0.4,0.3C85.3,4.1,85,4,84.7,4C84.1,4,83.6,4.1,83,4.1z
			"/>
		<path class="st1" d="M86.3,30.5c0.1,0.1,0.1,0.1,0.1,0.3c0,0.1-0.1,0.3-0.2,0.4c-0.4,0.5-0.4,0.5-0.8,0c-0.6-0.6-1.2-1.2-1.8-1.8
			c-0.4-0.4-0.4-0.6,0.1-1c0.3-0.2,0.3-0.2,0.6,0.1C85,29.2,85.7,29.8,86.3,30.5z"/>
		<path class="st1" d="M86.7,38.7c0.1,0.2,0.1,0.4,0.2,0.6c0,0.1-0.1,0.2-0.2,0.2c-0.6,0.3-1.2,0.4-1.8,0.6
			c-0.4,0.1-0.8,0.2-1.2,0.3c-0.2,0-0.2,0-0.3-0.1c-0.1-0.2-0.2-0.4-0.2-0.6c0-0.1,0-0.2,0.1-0.2c0.3-0.2,0.7-0.2,1-0.3
			c0.6-0.2,1.2-0.4,1.8-0.6c0.1,0,0.2-0.1,0.3-0.1C86.6,38.5,86.7,38.6,86.7,38.7z"/>
		<path class="st1" d="M89.8,34.8c-0.8-0.6-1.6-1.2-2.4-1.8c-0.3-0.2-0.3-0.3-0.1-0.6c0,0,0.1-0.1,0.1-0.1c0.4-0.4,0.5-0.4,0.8-0.1
			c0.6,0.6,1.4,1.1,2,1.6c0.1,0.1,0.1,0.1,0.2,0.2c0.1,0,0.1,0.1,0,0.2c-0.1,0.2-0.2,0.5-0.4,0.6c0,0-0.1,0.1-0.2,0.1
			C89.9,34.8,89.9,34.8,89.8,34.8z"/>
		<path class="st1" d="M87.5,4.4c0.1-0.2,0.2-0.3,0.3-0.4C87.8,4,87.9,3.9,88,3.9c0.2,0.1,0.4,0.2,0.6,0.3c0.8,0.5,1.5,1,2.1,1.7
			c0.2,0.2,0.2,0.3,0,0.5c-0.5,0.5-0.5,0.5-1,0c-0.6-0.6-1.3-1.1-2-1.6C87.4,4.8,87.3,4.7,87.5,4.4z"/>
		<path class="st1" d="M91.6,37.1c0.1,0.1,0.1,0.2-0.1,0.2c-0.9,0.4-1.7,0.9-2.6,1.3c-0.1,0-0.2,0.1-0.3,0.1c-0.1,0-0.1,0-0.2-0.1
			c-0.1-0.2-0.2-0.4-0.3-0.6c-0.1-0.2,0-0.2,0.1-0.3c0.7-0.4,1.5-0.7,2.2-1.1c0.5-0.2,0.5-0.2,0.8,0.2C91.4,36.9,91.5,37,91.6,37.1z
			"/>
		<path class="st1" d="M91.1,8.5c-0.1-0.1,0-0.2,0.1-0.3c0.2-0.2,0.4-0.3,0.6-0.4c0.1-0.1,0.2,0,0.3,0.1c0.2,0.3,0.4,0.7,0.5,1
			c0,0.1,0,0.1,0.1,0.1c0.1,0,0.1-0.1,0.1-0.1c0.1-0.2,0.1-0.4,0.3-0.6c0.2-0.2,0.3-0.2,0.5-0.1c0.1,0.1,0.2,0.1,0.2,0.1
			c0.2,0.1,0.3,0.2,0.2,0.5c-0.1,0.2-0.2,0.5-0.2,0.8c-0.1,0.4-0.3,0.8-0.4,1.3c0,0.2-0.2,0.3-0.4,0.3c-0.1,0-0.2,0-0.3,0
			c0,0,0,0,0,0c-0.1,0-0.2,0-0.2,0c-0.4,0-0.4,0-0.5-0.4c-0.1-0.6-0.3-1.1-0.6-1.7C91.2,8.9,91.1,8.7,91.1,8.5z"/>
		<path class="st1" d="M93.7,36c0.1,0.1,0.2,0.1,0.2,0.2c0.1,0.1,0.2,0.2,0.1,0.3c0,0-0.1,0.1-0.1,0.2c-0.3,0.4-0.4,0.4-0.7,0.1
			c-0.4-0.3-0.8-0.5-1.2-0.8c-0.1,0-0.1-0.1-0.2-0.1c-0.2-0.2-0.2-0.3,0-0.5c0.1-0.1,0.1-0.2,0.2-0.3c0-0.1,0.1-0.1,0.2-0.1
			c0.1,0,0.2,0,0.3,0.1c0.1,0.1,0.3,0.1,0.4,0c0.9-0.6,1.8-1.3,2.7-2c0.2-0.1,0.2-0.1,0.4,0c0.1,0.1,0.2,0.3,0.3,0.4
			c0.1,0.1,0.1,0.3,0,0.4c-0.3,0.3-0.6,0.5-1,0.8c-0.4,0.3-0.7,0.6-1.1,0.8c-0.1,0.1-0.2,0.1-0.3,0.1C93.6,35.9,93.6,36,93.7,36z"/>
		<path class="st1" d="M94.3,6.3c0.5-0.6,1-1.2,1.6-1.6c0.3-0.2,0.6-0.4,0.9-0.6c0.1-0.1,0.3-0.1,0.4,0c0.2,0.2,0.3,0.5,0.4,0.7
			c0,0.1-0.1,0.2-0.1,0.2c-0.9,0.5-1.7,1.2-2.4,2c-0.1,0.1-0.2,0.2-0.4,0c-0.1-0.1-0.2-0.2-0.4-0.3C94.2,6.6,94.1,6.5,94.3,6.3z"/>
		<path class="st1" d="M99,39c-0.1,0.2-0.1,0.3-0.2,0.5c-0.1,0.1-0.2,0.2-0.4,0.2c-0.9-0.4-1.9-0.8-2.8-1.2
			c-0.1-0.1-0.2-0.1-0.3-0.2c-0.1,0-0.1-0.1-0.1-0.2c0.1-0.2,0.2-0.4,0.4-0.6c0.2-0.2,0.3-0.2,0.6,0c0.8,0.4,1.5,0.7,2.3,1
			c0.2,0.1,0.3,0.1,0.5,0.2C99.1,38.8,99.1,38.8,99,39z"/>
		<path class="st1" d="M101.5,28.7c0.2,0.1,0.2,0.2,0.1,0.4c-0.2,0.3-0.5,0.7-0.8,1c-0.9,0.9-1.8,1.7-2.7,2.5
			c-0.1,0.1-0.1,0.1-0.2,0.1c0,0-0.1,0-0.1,0c-0.2-0.2-0.4-0.5-0.5-0.7c0-0.1,0.1-0.2,0.1-0.2c0.5-0.5,1-0.9,1.5-1.4
			c0.6-0.6,1.2-1.2,1.8-1.8c0.2-0.2,0.2-0.2,0.5,0C101.3,28.6,101.4,28.7,101.5,28.7z"/>
		<path class="st1" d="M98.8,3.8c-0.1-0.6,0.1-0.7,0.7-0.8c0.6-0.1,1.3-0.1,1.9-0.1c0.3,0,0.6,0,0.9,0.1c0.3,0,0.3,0.1,0.3,0.4
			c0,0.1,0,0.2,0,0.3c0,0.2-0.3,0.4-0.6,0.4c-0.7-0.2-1.4-0.1-2.1,0c-0.2,0-0.4,0.1-0.6,0.1c-0.2,0-0.3,0-0.4-0.2
			C98.9,4,98.9,3.9,98.8,3.8z"/>
		<path class="st1" d="M104.8,41c-0.1,0.2-0.2,0.2-0.4,0.2c-0.7-0.1-1.3-0.2-2-0.3c-0.4-0.1-0.8-0.2-1.2-0.3c-0.2,0-0.3-0.1-0.4-0.2
			c0,0-0.1-0.1-0.1-0.1c0-0.3,0.1-0.6,0.3-0.8c0.1-0.1,0.3-0.1,0.4,0c0.5,0.1,1,0.3,1.5,0.4c0.5,0.1,0.9,0.2,1.4,0.2
			C104.8,40.1,105,40.5,104.8,41z"/>
		<path class="st1" d="M105.1,24.8c-0.6,0.9-1.3,1.9-2.1,2.7c-0.1,0.1-0.2,0.1-0.3,0c-0.1-0.1-0.2-0.3-0.3-0.4
			c-0.1-0.1-0.1-0.1-0.1-0.2c0-0.1,0.1-0.2,0.1-0.3c0.7-0.8,1.2-1.6,1.8-2.5c0.2-0.3,0.2-0.3,0.5-0.1c0.1,0,0.1,0.1,0.2,0.1
			C105.3,24.4,105.3,24.4,105.1,24.8z"/>
		<path class="st1" d="M104,4.6c0.1-0.3,0.2-0.5,0.4-0.7c0,0,0.1,0,0.1,0c0.1,0,0.1,0,0.2,0.1c1,0.5,1.8,1.3,2.5,2.1
			c0.1,0.1,0.1,0.2,0,0.3c-0.2,0.2-0.4,0.3-0.6,0.4c-0.1,0.1-0.2,0-0.3-0.1c-0.1-0.1-0.2-0.2-0.3-0.3c-0.6-0.6-1.2-1.2-2-1.6
			C104,4.7,104,4.7,104,4.6z"/>
		<path class="st1" d="M107.9,19.5c-0.4,1.1-0.9,2.1-1.5,3.1c-0.2,0.3-0.2,0.3-0.5,0.1c-0.1-0.1-0.3-0.1-0.4-0.2
			c-0.1,0-0.1-0.1-0.1-0.2c0-0.1,0-0.2,0.1-0.2c0.4-0.8,0.8-1.5,1.1-2.3c0.1-0.2,0.2-0.5,0.3-0.7c0.1-0.1,0.1-0.2,0.3-0.1
			c0.2,0.1,0.4,0.2,0.6,0.3C108,19.3,108,19.4,107.9,19.5z"/>
		<path class="st1" d="M109.3,13.7c0,0.1,0,0.1,0,0.2c0,0.5-0.1,1-0.2,1.5c-0.1,0.6-0.2,1.2-0.4,1.7c0,0.2-0.1,0.2-0.3,0.2
			c-0.2,0-0.4,0-0.5-0.1c-0.2-0.1-0.3-0.2-0.2-0.5c0.2-0.9,0.4-1.7,0.5-2.6c0-0.2,0-0.4,0.1-0.6c0-0.1,0.1-0.2,0.2-0.2
			c0.2,0,0.4,0,0.6,0C109.3,13.4,109.4,13.5,109.3,13.7z"/>
		<path class="st1" d="M107.6,8.6c-0.1-0.2,0-0.4,0.2-0.5c0,0,0.1,0,0.1-0.1c0.5-0.3,0.7-0.2,0.9,0.3c0.3,0.9,0.6,1.8,0.6,2.8
			c0,0.4,0,0.4-0.3,0.5c-0.2,0-0.4,0-0.5,0c-0.2,0-0.2-0.1-0.2-0.3c0-0.7-0.2-1.3-0.4-1.9C107.8,9.2,107.7,8.9,107.6,8.6z"/>
		<path class="st1" d="M111.3,40.8c0,0.3-0.2,0.5-0.6,0.5c-0.4,0-0.9,0.1-1.3,0.1c-0.5,0-0.9,0.1-1.4,0c-0.3,0-0.6,0-0.9,0
			c-0.3-0.1-0.3-0.1-0.3-0.4c0-0.4,0.1-0.6,0.6-0.6c0.5,0,0.9,0,1.4,0c0.6,0,1.3,0,1.9-0.1C111.1,40.1,111.3,40.4,111.3,40.8z"/>
		<path class="st1" d="M116.9,39c0.1,0.1,0.1,0.3,0.1,0.4c0,0.2-0.1,0.2-0.3,0.3c-0.4,0.2-0.8,0.3-1.1,0.5c-0.6,0.2-1.3,0.4-1.9,0.6
			c0,0-0.1,0-0.1,0c-0.2,0-0.3-0.1-0.4-0.2c-0.1-0.2-0.1-0.3-0.1-0.5c0-0.2,0.2-0.3,0.4-0.3c0.3-0.1,0.6-0.2,0.9-0.3
			c0.6-0.2,1.3-0.4,1.9-0.7C116.6,38.6,116.8,38.7,116.9,39z"/>
		<path class="st1" d="M121.8,35.4c-0.4,0.5-0.8,1.1-1.2,1.6c-0.3,0.3-0.5,0.7-0.8,1c-0.2,0.2-0.4,0.3-0.6,0.4
			c-0.4,0.2-0.4,0.2-0.6-0.2c0-0.1-0.1-0.1-0.1-0.2c-0.1-0.2-0.1-0.3,0.1-0.4c0.1-0.1,0.1-0.2,0-0.3c-0.7-0.9-1.4-1.8-1.9-2.9
			c-0.3-0.6-0.4-1.2-0.3-1.9c0.1-0.3,0.2-0.7,0.3-1c0.3-0.7,0.9-1.1,1.6-1.4c0.2-0.1,0.4-0.2,0.6-0.2c0.2,0,0.4,0,0.6,0
			c1.1,0,2,0.5,2.7,1.4c0.3,0.5,0.4,1,0.5,1.6C122.7,33.8,122.4,34.6,121.8,35.4z"/>
		<path class="st2" d="M121.8,35.4c-0.4,0.5-0.8,1.1-1.2,1.6c-0.3,0.3-0.5,0.7-0.8,1c-0.2,0.2-0.4,0.3-0.6,0.4
			c-0.4,0.2-0.4,0.2-0.6-0.2c0-0.1-0.1-0.1-0.1-0.2c-0.1-0.2-0.1-0.3,0.1-0.4c0.1-0.1,0.1-0.2,0-0.3c-0.7-0.9-1.4-1.8-1.9-2.9
			c-0.3-0.6-0.4-1.2-0.3-1.9c0.1-0.3,0.2-0.7,0.3-1c0.3-0.7,0.9-1.1,1.6-1.4c0.2-0.1,0.4-0.2,0.6-0.2c0.2,0,0.4,0,0.6,0
			c1.1,0,2,0.5,2.7,1.4c0.3,0.5,0.4,1,0.5,1.6C122.7,33.8,122.4,34.6,121.8,35.4z"/>
		<path class="st3" d="M96.2,34.1c-0.3,0.3-0.6,0.5-1,0.8c-0.4,0.3-0.7,0.6-1.1,0.8c-0.1,0.1-0.2,0.1-0.3,0.1
			c-0.1,0-0.1,0.1-0.1,0.2c0.1,0.1,0.2,0.1,0.2,0.2c0.1,0.1,0.2,0.2,0.1,0.3c0,0-0.1,0.1-0.1,0.2c-0.3,0.4-0.4,0.4-0.7,0.1
			c-0.4-0.3-0.8-0.5-1.2-0.8c-0.1,0-0.1-0.1-0.2-0.1c-0.2-0.2-0.2-0.3,0-0.5c0.1-0.1,0.1-0.2,0.2-0.3c0-0.1,0.1-0.1,0.2-0.1
			c0.1,0,0.2,0,0.3,0.1c0.1,0.1,0.3,0.1,0.4,0c0.9-0.6,1.8-1.3,2.7-2c0.2-0.1,0.2-0.1,0.4,0c0.1,0.1,0.2,0.3,0.3,0.4
			C96.3,33.8,96.3,34,96.2,34.1z"/>
		<path class="st4" d="M93.8,8.9c-0.1,0.2-0.2,0.5-0.2,0.8c-0.1,0.4-0.3,0.8-0.4,1.3c0,0.2-0.2,0.3-0.4,0.3c-0.1,0-0.2,0-0.3,0
			c0,0,0,0,0,0c-0.1,0-0.2,0-0.2,0c-0.4,0-0.4,0-0.5-0.4c-0.1-0.6-0.3-1.1-0.6-1.7c-0.1-0.2-0.2-0.4-0.3-0.6c-0.1-0.1,0-0.2,0.1-0.3
			c0.2-0.2,0.4-0.3,0.6-0.4c0.1-0.1,0.2,0,0.3,0.1c0.2,0.3,0.4,0.7,0.5,1c0,0.1,0,0.1,0.1,0.1c0.1,0,0.1-0.1,0.1-0.1
			c0.1-0.2,0.1-0.4,0.3-0.6c0.2-0.2,0.3-0.2,0.5-0.1c0.1,0.1,0.2,0.1,0.2,0.1C93.9,8.5,93.9,8.7,93.8,8.9z"/>
		<path class="st5" d="M101.6,29.1c-0.2,0.3-0.5,0.7-0.8,1c-0.9,0.9-1.8,1.7-2.7,2.5c-0.1,0.1-0.1,0.1-0.2,0.1c0,0-0.1,0-0.1,0
			c-0.2-0.2-0.4-0.5-0.5-0.7c0-0.1,0.1-0.2,0.1-0.2c0.5-0.5,1-0.9,1.5-1.4c0.6-0.6,1.2-1.2,1.8-1.8c0.2-0.2,0.2-0.2,0.5,0
			c0.1,0.1,0.2,0.2,0.3,0.2C101.7,28.8,101.7,29,101.6,29.1z"/>
		<path class="st6" d="M110.8,41.3c-0.4,0-0.9,0.1-1.3,0.1c-0.5,0-0.9,0.1-1.4,0c-0.3,0-0.6,0-0.9,0c-0.3-0.1-0.3-0.1-0.3-0.4
			c0-0.4,0.1-0.6,0.6-0.6c0.5,0,0.9,0,1.4,0c0.6,0,1.3,0,1.9-0.1c0.5-0.1,0.6,0.1,0.6,0.5C111.4,41.1,111.1,41.3,110.8,41.3z"/>
		<path class="st7" d="M104.8,41c-0.1,0.2-0.2,0.2-0.4,0.2c-0.7-0.1-1.3-0.2-2-0.3c-0.4-0.1-0.8-0.2-1.2-0.3c-0.2,0-0.3-0.1-0.4-0.2
			c0,0-0.1-0.1-0.1-0.1c0-0.3,0.1-0.6,0.3-0.8c0.1-0.1,0.3-0.1,0.4,0c0.5,0.1,1,0.3,1.5,0.4c0.5,0.1,0.9,0.2,1.4,0.2
			C104.8,40.1,105,40.5,104.8,41z"/>
		<path class="st8" d="M77.5,8.9c-0.1,0.4-0.3,0.9-0.4,1.3c-0.1,0.5-0.2,0.9-0.2,1.4c0,0.4-0.3,0.6-0.7,0.5c0,0,0,0-0.1,0
			c-0.4-0.1-0.4-0.1-0.4-0.5c0-0.7,0.2-1.4,0.4-2.1c0.1-0.2,0.1-0.5,0.2-0.7c0.1-0.2,0.2-0.4,0.3-0.5c0-0.1,0.1-0.1,0.2-0.1
			c0.2,0,0.4,0.1,0.5,0.2C77.6,8.5,77.6,8.6,77.5,8.9z"/>
		<path class="st9" d="M109.3,13.7c0,0.1,0,0.1,0,0.2c0,0.5-0.1,1-0.2,1.5c-0.1,0.6-0.2,1.2-0.4,1.7c0,0.2-0.1,0.2-0.3,0.2
			c-0.2,0-0.4,0-0.5-0.1c-0.2-0.1-0.3-0.2-0.2-0.5c0.2-0.9,0.4-1.7,0.5-2.6c0-0.2,0-0.4,0.1-0.6c0-0.1,0.1-0.2,0.2-0.2
			c0.2,0,0.4,0,0.6,0C109.3,13.4,109.4,13.5,109.3,13.7z"/>
		<path class="st10" d="M77.5,17.5c-0.2,0.1-0.4,0.2-0.7,0.2c-0.1,0-0.2,0-0.2-0.2c-0.1-0.3-0.2-0.6-0.3-0.9
			c-0.1-0.5-0.2-1.1-0.3-1.6c0-0.2-0.1-0.4-0.1-0.6c0-0.4,0.1-0.5,0.5-0.6c0.1,0,0.2,0,0.2,0c0.3,0,0.3,0,0.4,0.3
			c0,0.2,0,0.3,0.1,0.5c0.1,0.8,0.3,1.7,0.5,2.5C77.6,17.3,77.6,17.5,77.5,17.5z"/>
		<path class="st11" d="M99,39c-0.1,0.2-0.1,0.3-0.2,0.5c-0.1,0.1-0.2,0.2-0.4,0.2c-0.9-0.4-1.9-0.8-2.8-1.2
			c-0.1-0.1-0.2-0.1-0.3-0.2c-0.1,0-0.1-0.1-0.1-0.2c0.1-0.2,0.2-0.4,0.4-0.6c0.2-0.2,0.3-0.2,0.6,0c0.8,0.4,1.5,0.7,2.3,1
			c0.2,0.1,0.3,0.1,0.5,0.2C99.1,38.8,99.1,38.8,99,39z"/>
		<path class="st12" d="M102.7,3.4c0,0.1,0,0.2,0,0.3c0,0.2-0.3,0.4-0.6,0.4c-0.7-0.2-1.4-0.1-2.1,0c-0.2,0-0.4,0.1-0.6,0.1
			c-0.2,0-0.3,0-0.4-0.2c0-0.1-0.1-0.2-0.1-0.2c-0.1-0.6,0.1-0.7,0.7-0.8c0.6-0.1,1.3-0.1,1.9-0.1c0.3,0,0.6,0,0.9,0.1
			C102.6,3.1,102.7,3.2,102.7,3.4z"/>
		<path class="st13" d="M105.1,24.8c-0.6,0.9-1.3,1.9-2.1,2.7c-0.1,0.1-0.2,0.1-0.3,0c-0.1-0.1-0.2-0.3-0.3-0.4
			c-0.1-0.1-0.1-0.1-0.1-0.2c0-0.1,0.1-0.2,0.1-0.3c0.7-0.8,1.2-1.6,1.8-2.5c0.2-0.3,0.2-0.3,0.5-0.1c0.1,0,0.1,0.1,0.2,0.1
			C105.3,24.4,105.3,24.4,105.1,24.8z"/>
		<path class="st14" d="M117,39.4c0,0.2-0.1,0.2-0.3,0.3c-0.4,0.2-0.8,0.3-1.1,0.5c-0.6,0.2-1.3,0.4-1.9,0.6c0,0-0.1,0-0.1,0
			c-0.2,0-0.3-0.1-0.4-0.2c-0.1-0.2-0.1-0.3-0.1-0.5c0-0.2,0.2-0.3,0.4-0.3c0.3-0.1,0.6-0.2,0.9-0.3c0.6-0.2,1.3-0.4,1.9-0.7
			c0.3-0.1,0.5-0.1,0.6,0.2C117,39.1,117,39.2,117,39.4z"/>
		<path class="st15" d="M107.9,19.5c-0.4,1.1-0.9,2.1-1.5,3.1c-0.2,0.3-0.2,0.3-0.5,0.1c-0.1-0.1-0.3-0.1-0.4-0.2
			c-0.1,0-0.1-0.1-0.1-0.2c0-0.1,0-0.2,0.1-0.2c0.4-0.8,0.8-1.5,1.1-2.3c0.1-0.2,0.2-0.5,0.3-0.7c0.1-0.1,0.1-0.2,0.3-0.1
			c0.2,0.1,0.4,0.2,0.6,0.3C108,19.3,108,19.4,107.9,19.5z"/>
		<path class="st16" d="M107.3,6.4c-0.2,0.2-0.4,0.3-0.6,0.4c-0.1,0.1-0.2,0-0.3-0.1c-0.1-0.1-0.2-0.2-0.3-0.3
			c-0.6-0.6-1.2-1.2-2-1.6C104,4.7,104,4.7,104,4.6c0.1-0.3,0.2-0.5,0.4-0.7c0,0,0.1,0,0.1,0c0.1,0,0.1,0,0.2,0.1
			c1,0.5,1.8,1.3,2.5,2.1C107.4,6.1,107.5,6.3,107.3,6.4z"/>
		<path class="st17" d="M109,11.6c-0.2,0-0.4,0-0.5,0c-0.2,0-0.2-0.1-0.2-0.3c0-0.7-0.2-1.3-0.4-1.9c-0.1-0.3-0.2-0.6-0.3-0.9
			c-0.1-0.2,0-0.4,0.2-0.5c0,0,0.1,0,0.1-0.1c0.5-0.3,0.7-0.2,0.9,0.3c0.3,0.9,0.6,1.8,0.6,2.8C109.4,11.5,109.4,11.5,109,11.6z"/>
		<path class="st18" d="M90.6,6.5c-0.5,0.5-0.5,0.5-1,0c-0.6-0.6-1.3-1.1-2-1.6c-0.2-0.2-0.2-0.2-0.1-0.5c0.1-0.2,0.2-0.3,0.3-0.4
			C87.8,4,87.9,3.9,88,3.9c0.2,0.1,0.4,0.2,0.6,0.3c0.8,0.5,1.5,1,2.1,1.7C90.9,6.2,90.8,6.3,90.6,6.5z"/>
		<path class="st19" d="M97.5,4.8c0,0.1-0.1,0.2-0.1,0.2c-0.9,0.5-1.7,1.2-2.4,2c-0.1,0.1-0.2,0.2-0.4,0c-0.1-0.1-0.2-0.2-0.4-0.3
			c-0.2-0.1-0.2-0.3,0-0.4c0.5-0.6,1-1.2,1.6-1.6c0.3-0.2,0.6-0.4,0.9-0.6c0.1-0.1,0.3-0.1,0.4,0C97.4,4.4,97.4,4.6,97.5,4.8z"/>
		<path class="st20" d="M86,3.5c0,0.1,0,0.2,0,0.3c0,0.2-0.2,0.3-0.4,0.3C85.3,4.1,85,4,84.7,4c-0.6,0-1.1,0-1.7,0.1
			c-0.1,0-0.1,0-0.2,0c-0.2,0-0.4,0-0.5-0.2c-0.1-0.3-0.1-0.6,0.1-0.8c0.1-0.1,0.1-0.1,0.2-0.1c1-0.1,2-0.2,3.1,0
			C85.9,3,86.1,3.1,86,3.5z"/>
		<path class="st15" d="M79.6,22.6c-0.1,0.1-0.3,0.2-0.4,0.3c-0.2,0.1-0.3,0.1-0.5-0.2c-0.4-0.7-0.8-1.5-1.1-2.3
			c-0.1-0.2-0.2-0.4-0.2-0.6c-0.1-0.2,0-0.3,0.1-0.4c0.2-0.1,0.3-0.2,0.6-0.3c0.1,0,0.1,0.1,0.2,0.2c0.1,0.3,0.3,0.6,0.4,0.9
			c0.3,0.7,0.6,1.3,1,2C79.7,22.4,79.7,22.5,79.6,22.6z"/>
		<path class="st21" d="M82.6,27.1c-0.1,0.1-0.2,0.2-0.3,0.3c-0.1,0.1-0.3,0.1-0.4,0c-0.3-0.4-0.6-0.8-0.9-1.2
			c-0.3-0.4-0.6-0.9-1-1.4c-0.2-0.3-0.2-0.4,0.1-0.6c0.1-0.1,0.2-0.1,0.3-0.2c0.1,0,0.1-0.1,0.2-0.1c0.1,0,0.2,0.1,0.3,0.2
			c0.6,0.8,1.1,1.6,1.8,2.4C82.9,26.8,82.9,26.9,82.6,27.1z"/>
		<path class="st22" d="M81,4.7c0,0.1,0,0.2-0.1,0.2C80,5.4,79.3,6,78.7,6.7C78.5,7,78.5,7,78.2,6.8c-0.1-0.1-0.2-0.1-0.3-0.2
			c-0.3-0.2-0.3-0.3-0.1-0.5c0.4-0.4,0.7-0.9,1.2-1.2c0.4-0.3,0.7-0.6,1.1-0.8c0.3-0.1,0.4-0.1,0.6,0.1C80.8,4.3,81,4.6,81,4.7z"/>
		<path class="st23" d="M81.6,41c-0.5,0.1-1,0.2-1.5,0.2c-0.5,0.1-1,0.1-1.5,0.1c-0.2,0-0.4-0.2-0.4-0.6c0-0.1,0-0.2,0-0.3
			c0-0.1,0.1-0.1,0.2-0.2c0.5-0.1,1-0.2,1.4-0.2c0.5,0,1-0.1,1.5-0.2c0.3-0.1,0.4,0,0.5,0.3c0,0.1,0.1,0.3,0.1,0.4
			C82,40.8,81.9,40.9,81.6,41z"/>
		<path class="st24" d="M86.5,30.8c0,0.1-0.1,0.3-0.2,0.4c-0.4,0.5-0.4,0.5-0.8,0c-0.6-0.6-1.2-1.2-1.8-1.8c-0.4-0.4-0.4-0.6,0.1-1
			c0.3-0.2,0.3-0.2,0.6,0.1c0.6,0.7,1.4,1.4,2,2C86.4,30.6,86.5,30.7,86.5,30.8z"/>
		<path class="st25" d="M90.6,34.2c-0.1,0.2-0.2,0.5-0.4,0.6c0,0-0.1,0.1-0.2,0.1c-0.1,0-0.1,0-0.2-0.1c-0.8-0.6-1.6-1.2-2.4-1.8
			c-0.3-0.2-0.3-0.3-0.1-0.6c0,0,0.1-0.1,0.1-0.1c0.4-0.4,0.5-0.4,0.8-0.1c0.6,0.6,1.4,1.1,2,1.6c0.1,0.1,0.1,0.1,0.2,0.2
			C90.6,34,90.6,34.1,90.6,34.2z"/>
		<path class="st26" d="M86.9,39.3c0,0.1-0.1,0.2-0.2,0.2c-0.6,0.3-1.2,0.4-1.8,0.6c-0.4,0.1-0.8,0.2-1.2,0.3c-0.2,0-0.2,0-0.3-0.1
			c-0.1-0.2-0.2-0.4-0.2-0.6c0-0.1,0-0.2,0.1-0.2c0.3-0.2,0.7-0.2,1-0.3c0.6-0.2,1.2-0.4,1.8-0.6c0.1,0,0.2-0.1,0.3-0.1
			c0.1,0,0.2,0,0.2,0.1C86.9,38.9,86.9,39.1,86.9,39.3z"/>
		<path class="st27" d="M91.6,37.4c-0.9,0.4-1.7,0.9-2.6,1.3c-0.1,0-0.2,0.1-0.3,0.1c-0.1,0-0.1,0-0.2-0.1c-0.1-0.2-0.2-0.4-0.3-0.6
			c-0.1-0.2,0-0.2,0.1-0.3c0.7-0.4,1.5-0.7,2.2-1.1c0.5-0.2,0.5-0.2,0.8,0.2c0.1,0.1,0.2,0.2,0.3,0.3C91.7,37.2,91.7,37.3,91.6,37.4
			z"/>
		<path class="st28" d="M75.9,41.5c-0.2,0-0.5,0-0.7,0v0c-0.2,0-0.4,0-0.5,0c-0.3,0-0.5-0.3-0.5-0.6c0-0.2,0.3-0.4,0.5-0.5
			c0.5-0.1,1,0,1.5,0c0.2,0,0.3,0.1,0.3,0.3C76.5,41.5,76.5,41.4,75.9,41.5z"/>
		<path class="st29" d="M120.8,33.1c0,0.7-0.6,1.3-1.3,1.3c-0.7,0-1.3-0.6-1.3-1.3c0-0.7,0.7-1.4,1.4-1.4
			C120.2,31.7,120.8,32.3,120.8,33.1z"/>
	</g>
</g>
</svg>
